<?xml version="1.0" encoding="UTF-8" standalone="no"?>
<!-- Created with Inkscape (http://www.inkscape.org/) -->

<svg
   version="1.1"
   id="svg1"
   width="618.66669"
   height="620"
   viewBox="0 0 618.66669 620"
   sodipodi:docname="eulogo_bw.svg"
   inkscape:version="1.4.2 (ebf0e940d0, 2025-05-08)"
   xmlns:inkscape="http://www.inkscape.org/namespaces/inkscape"
   xmlns:sodipodi="http://sodipodi.sourceforge.net/DTD/sodipodi-0.dtd"
   xmlns="http://www.w3.org/2000/svg"
   xmlns:svg="http://www.w3.org/2000/svg">
  <sodipodi:namedview
     id="namedview1"
     pagecolor="#ffffff"
     bordercolor="#000000"
     borderopacity="0.25"
     inkscape:showpageshadow="2"
     inkscape:pageopacity="0.0"
     inkscape:pagecheckerboard="0"
     inkscape:deskcolor="#d1d1d1"
     inkscape:zoom="1.2903226"
     inkscape:cx="309.225"
     inkscape:cy="310"
     inkscape:window-width="1920"
     inkscape:window-height="1011"
     inkscape:window-x="0"
     inkscape:window-y="0"
     inkscape:window-maximized="1"
     inkscape:current-layer="g1">
    <inkscape:page
       x="0"
       y="0"
       inkscape:label="1"
       id="page1"
       width="618.66669"
       height="620"
       margin="0"
       bleed="0" />
  </sodipodi:namedview>
  <defs
     id="defs1" />
  <g
     id="g1"
     inkscape:groupmode="layer"
     inkscape:label="1">
    <path
       id="path1"
       d="M 16.125,4640.37 H 4636.6 V 19.9063 H 16.125 V 4640.37"
       style="fill:#ffffff;fill-opacity:1;fill-rule:evenodd;stroke:none"
       transform="matrix(0.13333333,0,0,-0.13333333,0,620)" />
    <path
       id="path2"
       d="M 2407.76,5418.67 7750.78,3205.52 5541.88,-2127.23 198.861,85.9188 Z"
       style="fill:none;stroke:#000000;stroke-width:51.7056;stroke-linecap:butt;stroke-linejoin:miter;stroke-miterlimit:2.6131;stroke-dasharray:none;stroke-opacity:1"
       transform="matrix(0.09419027,-0.03909,-0.0390148,-0.0943716,0,620)" />
    <path
       id="path3"
       d="M 5079.28,4312.04 C 6550.71,3702.55 7254.68,2007.67 6646.38,539.094 6038.07,-929.481 4341.83,-1630.16 2870.4,-1020.67 1398.97,-411.183 694.997,1283.69 1303.3,2752.27 1911.61,4220.85 3607.85,4921.52 5079.28,4312.04 Z"
       style="fill:none;stroke:#000000;stroke-width:51.8618;stroke-linecap:butt;stroke-linejoin:miter;stroke-miterlimit:2.6131;stroke-dasharray:none;stroke-opacity:1"
       transform="matrix(0.09418933,-0.0390904,-0.03901453,-0.09437253,0,620)" />
    <path
       id="path4"
       d="m 1929.81,1485.95 h 793.11 V 692.828 h -793.11 z"
       style="fill:none;stroke:#000000;stroke-width:39.685;stroke-linecap:butt;stroke-linejoin:miter;stroke-miterlimit:2.6131;stroke-dasharray:none;stroke-opacity:1"
       transform="matrix(0.13333333,0,0,-0.13333333,0,620)" />
    <path
       id="path5"
       d="m 2326.36,1654.23 c 311.1,0 564.84,-253.74 564.84,-564.84 0,-311.105 -253.74,-564.843 -564.84,-564.843 -311.1,0 -564.84,253.738 -564.84,564.843 0,311.1 253.74,564.84 564.84,564.84 z"
       style="fill:none;stroke:#000000;stroke-width:39.685;stroke-linecap:butt;stroke-linejoin:miter;stroke-miterlimit:2.6131;stroke-dasharray:none;stroke-opacity:1"
       transform="matrix(0.13333333,0,0,-0.13333333,0,620)" />
    <path
       id="path6"
       d="m 1639.66,4135.24 8.16,-100.24 h -8.16 c -8.32,24.96 -19.05,43.77 -32.16,56.48 -18.89,18.24 -43.2,27.36 -72.88,27.36 -40.48,0 -71.28,-16 -92.32,-48 -17.68,-27.04 -26.48,-59.2 -26.48,-96.55 0,-30.33 5.84,-58 17.52,-82.97 11.76,-25.03 27.12,-43.35 46.08,-54.95 18.96,-11.68 38.48,-17.52 58.48,-17.52 11.76,0 23.04,1.52 34,4.48 10.96,2.96 21.44,7.36 31.6,13.12 v 91.92 c 0,15.92 -1.2,26.31 -3.6,31.27 -2.4,4.89 -6.16,8.65 -11.29,11.2 -5.03,2.64 -13.99,3.93 -26.79,3.93 v 8.87 h 123.04 v -8.87 h -5.84 c -12.24,0 -20.57,-4.08 -25.13,-12.25 -3.12,-5.75 -4.64,-17.2 -4.64,-34.15 v -97.28 c -17.99,-9.68 -35.75,-16.8 -53.2,-21.36 -17.51,-4.48 -36.95,-6.8 -58.39,-6.8 -61.36,0 -108,19.68 -139.92,59.04 -23.92,29.6 -35.84,63.6 -35.84,102.24 0,27.92 6.72,54.72 20.16,80.4 15.92,30.48 37.84,53.91 65.6,70.31 23.28,13.6 50.8,20.32 82.48,20.32 11.6,0 22.07,-0.88 31.6,-2.8 9.44,-1.84 22.8,-6 40.15,-12.4 8.73,-3.28 14.65,-4.88 17.61,-4.88 2.95,0 5.52,1.36 7.59,4.08 2.09,2.72 3.37,8.08 3.85,16 h 8.72"
       style="fill:#000000;fill-opacity:1;fill-rule:evenodd;stroke:none"
       transform="matrix(0.13333333,0,0,-0.13333333,0,620)" />
    <path
       id="path7"
       d="m 1975.17,3898.13 7.76,-1.68 -27.2,-86.24 h -246.07 v 8.64 h 12 c 13.43,0 23.04,4.4 28.79,13.11 3.28,5.05 4.89,16.65 4.89,34.73 v 205.11 c 0,19.84 -2.16,32.24 -6.57,37.2 -6.08,6.88 -15.12,10.32 -27.11,10.32 h -12 v 8.72 h 143.91 v -8.72 c -16.88,0.16 -28.71,-1.36 -35.52,-4.64 -6.8,-3.28 -11.44,-7.44 -13.92,-12.48 -2.48,-4.96 -3.75,-16.96 -3.75,-35.84 v -199.67 c 0,-12.96 1.27,-21.84 3.75,-26.72 1.84,-3.28 4.72,-5.68 8.64,-7.28 3.92,-1.52 16.08,-2.32 36.56,-2.32 h 23.2 c 24.4,0 41.52,1.76 51.36,5.36 9.84,3.6 18.8,10 26.96,19.12 8.08,9.11 16.24,23.6 24.32,43.28"
       style="fill:#000000;fill-opacity:1;fill-rule:evenodd;stroke:none"
       transform="matrix(0.13333333,0,0,-0.13333333,0,620)" />
    <path
       id="path8"
       d="m 2177.16,4135.24 c 41.29,0 77.04,-15.6 107.28,-46.96 30.24,-31.36 45.36,-70.39 45.36,-117.27 0,-48.33 -15.28,-88.4 -45.76,-120.24 -30.48,-31.92 -67.36,-47.84 -110.63,-47.84 -43.68,0 -80.48,15.6 -110.24,46.64 -29.76,31.12 -44.64,71.36 -44.64,120.72 0,50.48 17.2,91.59 51.52,123.51 29.91,27.68 65.59,41.44 107.11,41.44 z m -4.39,-17.04 c -28.48,0 -51.29,-10.56 -68.48,-31.68 -21.36,-26.24 -32.08,-64.64 -32.08,-115.27 0,-51.93 11.12,-91.84 33.27,-119.76 17.05,-21.28 39.52,-31.92 67.52,-31.92 29.84,0 54.48,11.68 73.92,34.96 19.44,23.28 29.2,60 29.2,110.15 0,54.32 -10.72,94.88 -32.16,121.61 -17.2,21.27 -40.88,31.91 -71.19,31.91"
       style="fill:#000000;fill-opacity:1;fill-rule:evenodd;stroke:none"
       transform="matrix(0.13333333,0,0,-0.13333333,0,620)" />
    <path
       id="path9"
       d="m 2578.36,3972.36 c 22.08,-4.64 38.56,-12.15 49.52,-22.47 15.12,-14.41 22.71,-31.93 22.71,-52.73 0,-15.75 -5.04,-30.87 -15.04,-45.35 -9.99,-14.48 -23.67,-24.96 -41.11,-31.6 -17.44,-6.64 -44,-10 -79.76,-10 h -150 v 8.64 h 11.92 c 13.28,0 22.8,4.24 28.56,12.72 3.6,5.44 5.44,17.04 5.44,34.88 v 205.35 c 0,19.68 -2.24,32.08 -6.8,37.2 -6.08,6.88 -15.2,10.32 -27.2,10.32 h -11.92 v 8.72 h 137.28 c 25.68,0 46.24,-1.92 61.68,-5.68 23.44,-5.6 41.36,-15.52 53.68,-29.84 12.32,-14.32 18.48,-30.72 18.48,-49.36 0,-15.91 -4.8,-30.16 -14.48,-42.8 -9.68,-12.56 -24,-21.84 -42.96,-28 z m -122.8,12.73 c 5.84,-1.13 12.4,-1.93 19.84,-2.48 7.44,-0.57 15.6,-0.81 24.48,-0.81 22.8,0 40,2.4 51.44,7.36 11.52,4.89 20.32,12.48 26.4,22.64 6.08,10.08 9.12,21.2 9.12,33.28 0,18.56 -7.6,34.4 -22.72,47.52 -15.2,13.12 -37.28,19.68 -66.32,19.68 -15.68,0 -29.68,-1.68 -42.24,-5.12 z m 0,-151.92 c 18.16,-4.24 36.08,-6.32 53.68,-6.32 28.32,0 49.84,6.4 64.72,19.11 14.8,12.73 22.24,28.49 22.24,47.2 0,12.33 -3.36,24.25 -10.08,35.61 -6.72,11.44 -17.68,20.39 -32.8,26.96 -15.12,6.56 -33.92,9.83 -56.24,9.83 -9.68,0 -18,-0.15 -24.88,-0.4 -6.88,-0.32 -12.4,-0.87 -16.64,-1.68 v -130.31"
       style="fill:#000000;fill-opacity:1;fill-rule:evenodd;stroke:none"
       transform="matrix(0.13333333,0,0,-0.13333333,0,620)" />
    <path
       id="path10"
       d="m 2904.83,3916.61 h -123.04 l -21.52,-50.16 c -5.36,-12.32 -8,-21.52 -8,-27.68 0,-4.8 2.32,-9.04 6.88,-12.72 4.64,-3.68 14.56,-6.08 29.92,-7.2 v -8.64 h -100.08 v 8.64 c 13.28,2.4 21.84,5.44 25.76,9.2 8,7.44 16.8,22.72 26.48,45.68 l 111.84,261.51 h 8.16 l 110.64,-264.31 c 8.88,-21.28 16.96,-35.04 24.24,-41.36 7.28,-6.32 17.44,-9.92 30.4,-10.72 v -8.64 h -125.44 v 8.64 c 12.64,0.64 21.2,2.8 25.68,6.4 4.48,3.52 6.72,7.92 6.72,13.12 0,6.88 -3.2,17.68 -9.44,32.56 z m -6.56,17.35 -53.92,128.4 -55.28,-128.4 z"
       style="fill:#000000;fill-opacity:1;fill-rule:evenodd;stroke:none"
       transform="matrix(0.13333333,0,0,-0.13333333,0,620)" />
    <path
       id="path11"
       d="m 3315.38,3898.13 7.76,-1.68 -27.2,-86.24 h -246.07 v 8.64 h 12 c 13.43,0 23.04,4.4 28.8,13.11 3.28,5.05 4.88,16.65 4.88,34.73 v 205.11 c 0,19.84 -2.16,32.24 -6.57,37.2 -6.07,6.88 -15.11,10.32 -27.11,10.32 h -12 v 8.72 h 143.92 v -8.72 c -16.89,0.16 -28.72,-1.36 -35.52,-4.64 -6.81,-3.28 -11.45,-7.44 -13.92,-12.48 -2.48,-4.96 -3.76,-16.96 -3.76,-35.84 v -199.67 c 0,-12.96 1.28,-21.84 3.76,-26.72 1.83,-3.28 4.72,-5.68 8.63,-7.28 3.93,-1.52 16.09,-2.32 36.57,-2.32 h 23.2 c 24.39,0 41.51,1.76 51.36,5.36 9.84,3.6 18.79,10 26.95,19.12 8.08,9.11 16.24,23.6 24.32,43.28"
       style="fill:#000000;fill-opacity:1;fill-rule:evenodd;stroke:none"
       transform="matrix(0.13333333,0,0,-0.13333333,0,620)" />
    <path
       id="path12"
       d="m 1092.23,3278.62 h -84.88 l -107.596,148.56 c -7.922,-0.24 -14.399,-0.41 -19.441,-0.41 -1.997,0 -4.157,0 -6.559,0.09 -2.316,0.08 -4.719,0.16 -7.277,0.32 v -92.32 c 0,-20 2.238,-32.4 6.558,-37.28 6,-6.88 14.879,-10.32 26.719,-10.32 h 12.48 v -8.64 H 776.078 v 8.64 h 11.918 c 13.438,0 23.039,4.4 28.801,13.12 3.277,4.88 4.961,16.4 4.961,34.48 v 205.35 c 0,20 -2.242,32.4 -6.559,37.2 -6.082,6.88 -15.203,10.32 -27.203,10.32 h -11.918 v 8.72 h 115.754 c 33.762,0 58.641,-2.48 74.641,-7.44 16,-4.88 29.601,-13.92 40.797,-27.12 11.12,-13.28 16.72,-28.96 16.72,-47.28 0,-19.52 -6.32,-36.48 -19.12,-50.88 -12.718,-14.32 -32.397,-24.48 -59.116,-30.39 l 65.596,-91.2 c 14.96,-20.96 27.92,-34.88 38.64,-41.76 10.8,-6.8 24.88,-11.2 42.24,-13.12 z m -225.753,163.36 c 3.039,0 5.597,0 7.757,-0.09 2.161,-0.07 4,-0.16 5.36,-0.16 30.32,0 53.199,6.57 68.562,19.69 15.438,13.12 23.117,29.84 23.117,50.15 0,19.84 -6.238,36 -18.64,48.4 -12.399,12.41 -28.879,18.64 -49.36,18.64 -9.039,0 -21.277,-1.52 -36.796,-4.48 v -132.15"
       style="fill:#000000;fill-opacity:1;fill-rule:evenodd;stroke:none"
       transform="matrix(0.13333333,0,0,-0.13333333,0,620)" />
    <path
       id="path13"
       d="M 1196.71,3579.09 V 3453.5 h 69.84 c 18.16,0 30.24,2.71 36.31,8.16 8.17,7.2 12.65,19.83 13.6,38 h 8.65 v -110.64 h -8.65 c -2.16,15.43 -4.39,25.36 -6.55,29.76 -2.8,5.43 -7.45,9.76 -13.84,12.88 -6.4,3.12 -16.25,4.72 -29.52,4.72 h -69.84 v -104.8 c 0,-14.08 0.64,-22.64 1.84,-25.68 1.28,-3.04 3.44,-5.44 6.56,-7.28 3.12,-1.76 9.12,-2.64 17.84,-2.64 h 53.92 c 17.92,0 31.04,1.2 39.11,3.76 8.17,2.48 15.93,7.36 23.45,14.72 9.68,9.68 19.59,24.32 29.76,43.84 h 9.36 l -27.36,-79.68 h -244.96 v 8.64 h 11.28 c 7.44,0 14.56,1.84 21.28,5.44 5.04,2.48 8.4,6.24 10.24,11.2 1.76,5.04 2.64,15.28 2.64,30.72 v 206.47 c 0,20.16 -2,32.56 -6.08,37.28 -5.6,6.24 -14.96,9.36 -28.08,9.36 h -11.28 v 8.72 h 244.96 l 3.51,-69.6 h -9.2 c -3.27,16.72 -6.87,28.17 -10.87,34.4 -4,6.24 -9.84,11.04 -17.68,14.32 -6.24,2.32 -17.28,3.52 -33.04,3.52 h -87.2"
       style="fill:#000000;fill-opacity:1;fill-rule:evenodd;stroke:none"
       transform="matrix(0.13333333,0,0,-0.13333333,0,620)" />
    <path
       id="path14"
       d="m 1618.06,3603.65 v -109.92 h -8.64 c -2.88,21.13 -7.92,37.93 -15.12,50.4 -7.28,12.56 -17.68,22.48 -31.12,29.76 -13.44,7.36 -27.28,11.04 -41.68,11.04 -16.24,0 -29.68,-4.96 -40.32,-14.88 -10.64,-9.92 -15.92,-21.2 -15.92,-33.84 0,-9.68 3.36,-18.55 10.08,-26.48 9.68,-11.76 32.72,-27.35 69.12,-46.87 29.68,-15.93 50,-28.16 60.8,-36.72 10.88,-8.48 19.28,-18.57 25.12,-30.09 5.84,-11.59 8.8,-23.67 8.8,-36.31 0,-24.08 -9.36,-44.8 -28,-62.24 -18.72,-17.44 -42.72,-26.16 -72.08,-26.16 -9.28,0 -17.92,0.72 -26.08,2.16 -4.8,0.72 -14.88,3.6 -30.08,8.48 -15.2,4.96 -24.88,7.44 -28.96,7.44 -3.92,0 -6.96,-1.2 -9.28,-3.52 -2.24,-2.32 -3.92,-7.2 -5.04,-14.56 h -8.64 v 108.96 h 8.64 c 4.08,-22.8 9.6,-39.84 16.48,-51.2 6.88,-11.28 17.36,-20.72 31.52,-28.24 14.08,-7.44 29.6,-11.2 46.48,-11.2 19.52,0 34.96,5.12 46.32,15.44 11.28,10.32 16.96,22.48 16.96,36.56 0,7.84 -2.16,15.68 -6.4,23.68 -4.32,8 -11.04,15.36 -20.08,22.24 -6.08,4.72 -22.72,14.63 -49.92,29.92 -27.2,15.2 -46.48,27.36 -58,36.39 -11.52,9.13 -20.16,19.13 -26.16,30 -5.91,10.97 -8.88,23.04 -8.88,36.16 0,22.81 8.72,42.4 26.24,58.88 17.52,16.48 39.76,24.72 66.8,24.72 16.88,0 34.8,-4.08 53.68,-12.4 8.72,-3.92 14.96,-5.84 18.48,-5.84 4.08,0 7.44,1.2 10,3.6 2.56,2.48 4.64,7.36 6.24,14.64 h 8.64"
       style="fill:#000000;fill-opacity:1;fill-rule:evenodd;stroke:none"
       transform="matrix(0.13333333,0,0,-0.13333333,0,620)" />
    <path
       id="path15"
       d="M 1773.66,3579.09 V 3453.5 h 69.83 c 18.16,0 30.24,2.71 36.32,8.16 8.16,7.2 12.64,19.83 13.6,38 h 8.64 v -110.64 h -8.64 c -2.16,15.43 -4.4,25.36 -6.56,29.76 -2.8,5.43 -7.44,9.76 -13.84,12.88 -6.4,3.12 -16.24,4.72 -29.52,4.72 h -69.83 v -104.8 c 0,-14.08 0.63,-22.64 1.84,-25.68 1.27,-3.04 3.43,-5.44 6.55,-7.28 3.13,-1.76 9.12,-2.64 17.84,-2.64 h 53.92 c 17.92,0 31.04,1.2 39.12,3.76 8.16,2.48 15.92,7.36 23.44,14.72 9.68,9.68 19.6,24.32 29.76,43.84 h 9.36 l -27.36,-79.68 h -244.95 v 8.64 h 11.28 c 7.43,0 14.56,1.84 21.27,5.44 5.05,2.48 8.4,6.24 10.24,11.2 1.76,5.04 2.65,15.28 2.65,30.72 v 206.47 c 0,20.16 -2.01,32.56 -6.08,37.28 -5.61,6.24 -14.97,9.36 -28.08,9.36 h -11.28 v 8.72 h 244.95 l 3.52,-69.6 h -9.2 c -3.28,16.72 -6.88,28.17 -10.88,34.4 -4,6.24 -9.84,11.04 -17.68,14.32 -6.24,2.32 -17.28,3.52 -33.04,3.52 h -87.19"
       style="fill:#000000;fill-opacity:1;fill-rule:evenodd;stroke:none"
       transform="matrix(0.13333333,0,0,-0.13333333,0,620)" />
    <path
       id="path16"
       d="m 2194.52,3385.02 h -123.03 l -21.53,-50.16 c -5.35,-12.32 -7.99,-21.52 -7.99,-27.68 0,-4.8 2.32,-9.04 6.88,-12.72 4.64,-3.68 14.56,-6.08 29.92,-7.2 v -8.64 h -100.08 v 8.64 c 13.28,2.4 21.84,5.44 25.76,9.2 8,7.44 16.8,22.72 26.48,45.68 l 111.84,261.51 h 8.16 l 110.63,-264.31 c 8.89,-21.28 16.96,-35.04 24.24,-41.36 7.29,-6.32 17.44,-9.92 30.4,-10.72 v -8.64 h -125.44 v 8.64 c 12.65,0.64 21.2,2.8 25.69,6.4 4.47,3.52 6.71,7.92 6.71,13.12 0,6.88 -3.2,17.68 -9.44,32.56 z m -6.56,17.36 -53.91,128.39 -55.28,-128.39 z"
       style="fill:#000000;fill-opacity:1;fill-rule:evenodd;stroke:none"
       transform="matrix(0.13333333,0,0,-0.13333333,0,620)" />
    <path
       id="path17"
       d="m 2654.36,3278.62 h -84.88 l -107.6,148.56 c -7.92,-0.24 -14.4,-0.41 -19.44,-0.41 -2,0 -4.16,0 -6.56,0.09 -2.32,0.08 -4.72,0.16 -7.28,0.32 v -92.32 c 0,-20 2.24,-32.4 6.56,-37.28 6,-6.88 14.88,-10.32 26.72,-10.32 h 12.48 v -8.64 H 2338.2 v 8.64 h 11.92 c 13.44,0 23.04,4.4 28.8,13.12 3.28,4.88 4.96,16.4 4.96,34.48 v 205.35 c 0,20 -2.24,32.4 -6.56,37.2 -6.08,6.88 -15.2,10.32 -27.2,10.32 h -11.92 v 8.72 h 115.76 c 33.76,0 58.64,-2.48 74.64,-7.44 16,-4.88 29.6,-13.92 40.8,-27.12 11.12,-13.28 16.72,-28.96 16.72,-47.28 0,-19.52 -6.32,-36.48 -19.12,-50.88 -12.72,-14.32 -32.4,-24.48 -59.12,-30.39 l 65.6,-91.2 c 14.96,-20.96 27.92,-34.88 38.64,-41.76 10.8,-6.8 24.88,-11.2 42.24,-13.12 z m -225.76,163.36 c 3.04,0 5.6,0 7.76,-0.09 2.16,-0.07 4,-0.16 5.36,-0.16 30.32,0 53.2,6.57 68.56,19.69 15.44,13.12 23.12,29.84 23.12,50.15 0,19.84 -6.24,36 -18.64,48.4 -12.4,12.41 -28.88,18.64 -49.36,18.64 -9.04,0 -21.28,-1.52 -36.8,-4.48 v -132.15"
       style="fill:#000000;fill-opacity:1;fill-rule:evenodd;stroke:none"
       transform="matrix(0.13333333,0,0,-0.13333333,0,620)" />
    <path
       id="path18"
       d="m 2947.47,3603.65 7.28,-107.99 h -7.28 c -9.68,32.31 -23.52,55.59 -41.44,69.84 -18,14.23 -39.52,21.35 -64.72,21.35 -21.12,0 -40.16,-5.36 -57.2,-16.08 -17.04,-10.72 -30.4,-27.76 -40.16,-51.2 -9.76,-23.44 -14.63,-52.64 -14.63,-87.43 0,-28.72 4.55,-53.68 13.83,-74.8 9.21,-21.04 23.04,-37.2 41.6,-48.48 18.48,-11.28 39.6,-16.88 63.36,-16.88 20.64,0 38.8,4.4 54.64,13.28 15.76,8.8 33.12,26.32 52,52.56 l 7.28,-4.64 c -15.92,-28.32 -34.56,-49.04 -55.76,-62.16 -21.28,-13.12 -46.48,-19.68 -75.76,-19.68 -52.64,0 -93.44,19.52 -122.31,58.64 -21.52,29.04 -32.32,63.27 -32.32,102.64 0,31.68 7.12,60.88 21.27,87.43 14.24,26.56 33.84,47.12 58.72,61.76 24.96,14.56 52.16,21.84 81.68,21.84 22.96,0 45.68,-5.6 68,-16.8 6.56,-3.44 11.28,-5.19 14.08,-5.19 4.16,0 7.84,1.51 10.96,4.47 4.08,4.16 6.96,10.08 8.72,17.52 h 8.16"
       style="fill:#000000;fill-opacity:1;fill-rule:evenodd;stroke:none"
       transform="matrix(0.13333333,0,0,-0.13333333,0,620)" />
    <path
       id="path19"
       d="m 3085.71,3449.02 h 147.67 v 90.95 c 0,16.24 -1.04,26.96 -3.04,32.08 -1.6,3.92 -4.88,7.28 -9.84,10.08 -6.71,3.76 -13.84,5.6 -21.36,5.6 h -11.19 v 8.72 h 135.91 v -8.72 h -11.28 c -7.44,0 -14.56,-1.76 -21.28,-5.35 -5.04,-2.49 -8.4,-6.33 -10.24,-11.37 -1.76,-5.12 -2.64,-15.44 -2.64,-31.04 v -205.11 c 0,-16.08 0.96,-26.72 3.04,-31.84 1.52,-3.92 4.72,-7.28 9.6,-10.08 6.88,-3.76 14.08,-5.68 21.52,-5.68 h 11.28 v -8.64 h -135.91 v 8.64 h 11.19 c 12.97,0 22.48,3.84 28.4,11.52 3.92,4.96 5.84,17.04 5.84,36.08 v 96.8 h -147.67 v -96.8 c 0,-16.08 1.04,-26.72 3.04,-31.84 1.6,-3.92 4.88,-7.28 9.92,-10.08 6.72,-3.76 13.76,-5.68 21.28,-5.68 h 11.51 v -8.64 h -136.15 v 8.64 h 11.2 c 13.12,0 22.64,3.84 28.64,11.52 3.68,4.96 5.6,17.04 5.6,36.08 v 205.11 c 0,16.24 -1.04,26.96 -3.04,32.08 -1.6,3.92 -4.8,7.28 -9.6,10.08 -6.88,3.76 -14.08,5.6 -21.6,5.6 h -11.2 v 8.72 h 136.15 v -8.72 h -11.51 c -7.52,0 -14.56,-1.76 -21.28,-5.35 -4.88,-2.49 -8.24,-6.33 -10.08,-11.37 -1.92,-5.12 -2.88,-15.44 -2.88,-31.04 v -90.95"
       style="fill:#000000;fill-opacity:1;fill-rule:evenodd;stroke:none"
       transform="matrix(0.13333333,0,0,-0.13333333,0,620)" />
    <path
       id="path20"
       d="M 3442.42,3579.09 V 3453.5 h 69.84 c 18.16,0 30.24,2.71 36.32,8.16 8.16,7.2 12.64,19.83 13.6,38 h 8.64 v -110.64 h -8.64 c -2.16,15.43 -4.4,25.36 -6.56,29.76 -2.8,5.43 -7.44,9.76 -13.84,12.88 -6.4,3.12 -16.24,4.72 -29.52,4.72 h -69.84 v -104.8 c 0,-14.08 0.64,-22.64 1.84,-25.68 1.28,-3.04 3.44,-5.44 6.56,-7.28 3.12,-1.76 9.12,-2.64 17.84,-2.64 h 53.92 c 17.92,0 31.04,1.2 39.12,3.76 8.16,2.48 15.92,7.36 23.44,14.72 9.68,9.68 19.59,24.32 29.76,43.84 h 9.36 l -27.36,-79.68 h -244.96 v 8.64 h 11.28 c 7.44,0 14.56,1.84 21.28,5.44 5.04,2.48 8.4,6.24 10.24,11.2 1.76,5.04 2.64,15.28 2.64,30.72 v 206.47 c 0,20.16 -2,32.56 -6.08,37.28 -5.6,6.24 -14.96,9.36 -28.08,9.36 h -11.28 v 8.72 h 244.96 l 3.51,-69.6 h -9.19 c -3.28,16.72 -6.88,28.17 -10.88,34.4 -4,6.24 -9.84,11.04 -17.68,14.32 -6.24,2.32 -17.28,3.52 -33.04,3.52 h -87.2"
       style="fill:#000000;fill-opacity:1;fill-rule:evenodd;stroke:none"
       transform="matrix(0.13333333,0,0,-0.13333333,0,620)" />
    <path
       id="path21"
       d="m 3863.77,3603.65 v -109.92 h -8.64 c -2.88,21.13 -7.92,37.93 -15.12,50.4 -7.28,12.56 -17.68,22.48 -31.12,29.76 -13.44,7.36 -27.28,11.04 -41.68,11.04 -16.24,0 -29.67,-4.96 -40.32,-14.88 -10.64,-9.92 -15.92,-21.2 -15.92,-33.84 0,-9.68 3.36,-18.55 10.08,-26.48 9.68,-11.76 32.72,-27.35 69.12,-46.87 29.68,-15.93 50,-28.16 60.8,-36.72 10.88,-8.48 19.28,-18.57 25.12,-30.09 5.84,-11.59 8.8,-23.67 8.8,-36.31 0,-24.08 -9.36,-44.8 -28,-62.24 -18.72,-17.44 -42.72,-26.16 -72.08,-26.16 -9.28,0 -17.92,0.72 -26.08,2.16 -4.8,0.72 -14.88,3.6 -30.08,8.48 -15.2,4.96 -24.88,7.44 -28.95,7.44 -3.93,0 -6.97,-1.2 -9.29,-3.52 -2.23,-2.32 -3.91,-7.2 -5.03,-14.56 h -8.65 v 108.96 h 8.65 c 4.07,-22.8 9.59,-39.84 16.48,-51.2 6.87,-11.28 17.35,-20.72 31.51,-28.24 14.08,-7.44 29.6,-11.2 46.48,-11.2 19.52,0 34.96,5.12 46.32,15.44 11.28,10.32 16.96,22.48 16.96,36.56 0,7.84 -2.16,15.68 -6.4,23.68 -4.32,8 -11.04,15.36 -20.08,22.24 -6.08,4.72 -22.72,14.63 -49.92,29.92 -27.2,15.2 -46.48,27.36 -58,36.39 -11.52,9.13 -20.16,19.13 -26.16,30 -5.91,10.97 -8.88,23.04 -8.88,36.16 0,22.81 8.72,42.4 26.24,58.88 17.52,16.48 39.77,24.72 66.8,24.72 16.88,0 34.8,-4.08 53.68,-12.4 8.72,-3.92 14.96,-5.84 18.48,-5.84 4.08,0 7.44,1.2 10,3.6 2.56,2.48 4.64,7.36 6.24,14.64 h 8.64"
       style="fill:#000000;fill-opacity:1;fill-rule:evenodd;stroke:none"
       transform="matrix(0.13333333,0,0,-0.13333333,0,620)" />
    <path
       id="path22"
       d="m 306.484,2593.5 v -183.16 h 101.848 c 26.481,0 44.098,3.96 52.965,11.9 11.898,10.49 18.433,28.93 19.836,55.41 H 493.73 V 2316.3 h -12.597 c -3.153,22.52 -6.418,36.99 -9.57,43.41 -4.083,7.93 -10.848,14.23 -20.18,18.78 -9.336,4.55 -23.684,6.88 -43.051,6.88 H 306.484 v -152.83 c 0,-20.54 0.934,-33.02 2.684,-37.45 1.863,-4.43 5.016,-7.93 9.566,-10.62 4.551,-2.56 13.301,-3.84 26.016,-3.84 h 78.633 c 26.133,0 45.265,1.75 57.047,5.48 11.902,3.61 23.215,10.73 34.183,21.46 14.117,14.12 28.586,35.47 43.403,63.94 h 13.648 l -39.902,-116.2 H 174.535 v 12.6 h 16.453 c 10.848,0 21.231,2.68 31.028,7.93 7.351,3.62 12.254,9.1 14.937,16.34 2.567,7.34 3.848,22.28 3.848,44.79 v 301.11 c 0,29.4 -2.914,47.49 -8.863,54.37 -8.168,9.1 -21.821,13.65 -40.95,13.65 h -16.453 v 12.72 h 357.227 l 5.133,-101.5 H 523.48 c -4.785,24.38 -10.035,41.07 -15.867,50.16 -5.832,9.1 -14.351,16.11 -25.781,20.89 -9.102,3.38 -25.199,5.13 -48.184,5.13 H 306.484"
       style="fill:#000000;fill-opacity:1;fill-rule:evenodd;stroke:none"
       transform="matrix(0.13333333,0,0,-0.13333333,0,620)" />
    <path
       id="path23"
       d="m 900.656,2606.1 v 12.72 H 1064.8 v -12.72 h -17.5 c -18.19,0 -32.19,-7.58 -42,-22.87 -4.78,-7.11 -7.226,-23.45 -7.226,-49.23 v -187.95 c 0,-46.55 -4.551,-82.59 -13.769,-108.14 -9.215,-25.67 -27.414,-47.72 -54.364,-66.03 -27.066,-18.32 -63.816,-27.54 -110.25,-27.54 -50.628,0 -89.011,8.75 -115.144,26.37 -26.254,17.5 -44.801,41.06 -55.766,70.7 -7.234,20.29 -10.968,58.33 -10.968,114.21 v 181.18 c 0,28.47 -3.848,47.13 -11.782,56 -7.82,8.87 -20.535,13.3 -38.031,13.3 h -17.504 v 12.72 h 200.313 v -12.72 h -17.731 c -19.137,0 -32.898,-5.95 -41.066,-18.08 -5.719,-8.17 -8.52,-25.32 -8.52,-51.22 v -202.06 c 0,-17.97 1.637,-38.62 4.903,-61.83 3.386,-23.22 9.335,-41.42 17.964,-54.37 8.637,-12.95 21.118,-23.68 37.454,-32.08 16.332,-8.52 36.281,-12.72 59.964,-12.72 30.332,0 57.399,6.65 81.313,19.83 23.918,13.19 40.367,30.1 49.117,50.75 8.75,20.65 13.184,55.54 13.184,104.77 v 187.71 c 0,28.93 -3.266,47.02 -9.567,54.25 -8.984,10.03 -22.168,15.05 -39.664,15.05 h -17.504"
       style="fill:#000000;fill-opacity:1;fill-rule:evenodd;stroke:none"
       transform="matrix(0.13333333,0,0,-0.13333333,0,620)" />
    <path
       id="path24"
       d="m 1063.29,2155.31 v 12.6 h 17.39 c 19.59,0 33.48,6.3 41.64,18.89 5.02,7.47 7.59,24.39 7.59,50.52 v 299.48 c 0,28.93 -3.27,47.02 -9.57,54.25 -8.87,10.03 -22.17,15.05 -39.66,15.05 h -17.39 v 12.72 h 188.65 c 69.18,0 121.91,-7.94 158.08,-23.57 36.05,-15.75 65.1,-42 87.14,-78.63 21.94,-36.75 33.02,-79.1 33.02,-127.17 0,-64.51 -19.6,-118.41 -58.8,-161.69 -43.98,-48.3 -111.06,-72.45 -201.01,-72.45 z m 132.18,33.48 c 28.93,-6.41 53.2,-9.57 72.8,-9.57 52.85,0 96.71,18.55 131.6,55.77 34.88,37.1 52.38,87.5 52.38,151.08 0,63.93 -17.5,114.45 -52.38,151.31 -34.89,36.99 -79.57,55.42 -134.28,55.42 -20.54,0 -43.87,-3.26 -70.12,-9.92 v -394.09"
       style="fill:#000000;fill-opacity:1;fill-rule:evenodd;stroke:none"
       transform="matrix(0.13333333,0,0,-0.13333333,0,620)" />
    <path
       id="path25"
       d="M 1856.03,2310.47 H 1676.6 l -31.39,-73.15 c -7.81,-17.96 -11.66,-31.38 -11.66,-40.36 0,-7 3.38,-13.19 10.03,-18.55 6.77,-5.37 21.24,-8.87 43.63,-10.5 v -12.6 h -145.94 v 12.6 c 19.36,3.5 31.85,7.93 37.56,13.41 11.67,10.86 24.5,33.14 38.62,66.62 l 163.1,381.38 h 11.9 l 161.34,-385.46 c 12.95,-31.04 24.73,-51.1 35.35,-60.32 10.62,-9.22 25.43,-14.47 44.33,-15.63 v -12.6 h -182.93 v 12.6 c 18.44,0.93 30.92,4.08 37.45,9.33 6.54,5.14 9.8,11.55 9.8,19.13 0,10.04 -4.66,25.79 -13.76,47.49 z m -9.57,25.32 -78.63,187.25 -80.62,-187.25 z"
       style="fill:#000000;fill-opacity:1;fill-rule:evenodd;stroke:none"
       transform="matrix(0.13333333,0,0,-0.13333333,0,620)" />
    <path
       id="path26"
       d="m 2166.59,2593.5 v -183.16 h 101.85 c 26.48,0 44.1,3.96 52.97,11.9 11.89,10.49 18.43,28.93 19.83,55.41 h 12.6 V 2316.3 h -12.6 c -3.15,22.52 -6.42,36.99 -9.57,43.41 -4.08,7.93 -10.85,14.23 -20.18,18.78 -9.33,4.55 -23.69,6.88 -43.05,6.88 h -101.85 v -152.83 c 0,-20.54 0.93,-33.02 2.68,-37.45 1.87,-4.43 5.02,-7.93 9.57,-10.62 4.55,-2.56 13.3,-3.84 26.02,-3.84 h 78.63 c 26.13,0 45.26,1.75 57.05,5.48 11.9,3.61 23.21,10.73 34.18,21.46 14.12,14.12 28.58,35.47 43.4,63.94 h 13.65 l -39.9,-116.2 h -357.23 v 12.6 h 16.45 c 10.85,0 21.23,2.68 31.04,7.93 7.34,3.62 12.25,9.1 14.93,16.34 2.57,7.34 3.85,22.28 3.85,44.79 v 301.11 c 0,29.4 -2.92,47.49 -8.87,54.37 -8.16,9.1 -21.81,13.65 -40.95,13.65 h -16.45 v 12.72 h 357.23 l 5.13,-101.5 h -13.41 c -4.79,24.38 -10.04,41.07 -15.87,50.16 -5.83,9.1 -14.35,16.11 -25.78,20.89 -9.1,3.38 -25.2,5.13 -48.19,5.13 h -127.16"
       style="fill:#000000;fill-opacity:1;fill-rule:evenodd;stroke:none"
       transform="matrix(0.13333333,0,0,-0.13333333,0,620)" />
    <path
       id="path27"
       d="m 2713.28,2155.31 -179.08,390.01 v -309.75 c 0,-28.46 3.04,-46.19 9.22,-53.31 8.4,-9.57 21.82,-14.35 40.01,-14.35 h 16.34 v -12.6 h -161.23 v 12.6 h 16.33 c 19.6,0 33.49,5.95 41.77,17.85 5.01,7.23 7.46,23.91 7.46,49.81 v 302.86 c 0,20.53 -2.21,35.35 -6.76,44.45 -3.27,6.66 -9.1,12.14 -17.62,16.57 -8.63,4.43 -22.28,6.65 -41.18,6.65 v 12.72 h 131.25 l 168.11,-362.71 165.43,362.71 h 131.25 v -12.72 h -16.1 c -19.84,0 -33.84,-5.95 -42,-17.73 -5.02,-7.35 -7.59,-23.92 -7.59,-49.94 v -302.86 c 0,-28.46 3.27,-46.19 9.69,-53.31 8.4,-9.57 21.7,-14.35 39.9,-14.35 h 16.1 v -12.6 h -196.93 v 12.6 h 16.45 c 19.83,0 33.71,5.95 41.76,17.85 5.02,7.23 7.47,23.91 7.47,49.81 v 309.75 L 2724.6,2155.31 h -11.32"
       style="fill:#000000;fill-opacity:1;fill-rule:evenodd;stroke:none"
       transform="matrix(0.13333333,0,0,-0.13333333,0,620)" />
    <path
       id="path28"
       d="m 3284.24,2629.32 c 60.2,0 112.35,-22.75 156.45,-68.48 44.1,-45.74 66.15,-102.67 66.15,-171.04 0,-70.46 -22.29,-128.91 -66.74,-175.34 -44.45,-46.55 -98.23,-69.77 -161.34,-69.77 -63.7,0 -117.37,22.75 -160.77,68.02 -43.4,45.38 -65.1,104.06 -65.1,176.04 0,73.62 25.09,133.59 75.14,180.13 43.63,40.37 95.66,60.44 156.21,60.44 z m -6.42,-24.85 c -41.53,0 -74.78,-15.4 -99.86,-46.2 -31.15,-38.27 -46.78,-94.27 -46.78,-168.11 0,-75.72 16.21,-133.94 48.53,-174.65 24.85,-31.04 57.63,-46.55 98.46,-46.55 43.52,0 79.45,17.03 107.8,50.98 28.35,33.95 42.58,87.5 42.58,160.65 0,79.21 -15.63,138.36 -46.89,177.33 -25.09,31.03 -59.62,46.55 -103.84,46.55"
       style="fill:#000000;fill-opacity:1;fill-rule:evenodd;stroke:none"
       transform="matrix(0.13333333,0,0,-0.13333333,0,620)" />
    <path
       id="path29"
       d="m 3503.57,2618.82 h 125.77 l 283.37,-347.66 v 267.27 c 0,28.47 -3.26,46.32 -9.57,53.32 -8.51,9.57 -21.81,14.35 -40.01,14.35 h -16.1 v 12.72 h 161.35 v -12.72 h -16.45 c -19.6,0 -33.48,-5.95 -41.65,-17.73 -5.02,-7.35 -7.47,-23.92 -7.47,-49.94 v -390.59 h -12.36 l -305.55,373.21 v -285.48 c 0,-28.46 3.03,-46.19 9.22,-53.31 8.63,-9.57 22.05,-14.35 40.02,-14.35 h 16.33 v -12.6 h -161.24 v 12.6 h 15.99 c 19.83,0 33.83,5.95 42.12,17.85 5.01,7.23 7.46,23.91 7.46,49.81 v 322.35 c -13.41,15.75 -23.68,26.13 -30.57,31.15 -7,5.02 -17.14,9.68 -30.56,14 -6.65,1.98 -16.68,3.03 -30.1,3.03 v 12.72"
       style="fill:#000000;fill-opacity:1;fill-rule:evenodd;stroke:none"
       transform="matrix(0.13333333,0,0,-0.13333333,0,620)" />
    <path
       id="path30"
       d="m 4330.84,2618.82 h 161.7 v -12.72 h -8.87 c -5.95,0 -14.58,-2.57 -26.01,-7.82 -11.32,-5.25 -21.7,-12.71 -31.04,-22.51 -9.33,-9.8 -20.88,-25.79 -34.53,-47.95 l -111.77,-175.93 v -116.32 c 0,-28.46 3.16,-46.19 9.57,-53.31 8.63,-9.57 22.29,-14.35 40.95,-14.35 h 15.05 v -12.6 h -196.81 v 12.6 h 16.33 c 19.6,0 33.6,5.95 41.77,17.85 5.01,7.23 7.46,23.91 7.46,49.81 v 109.79 l -127.16,194.12 c -14.94,22.75 -25.2,36.99 -30.57,42.7 -5.36,5.72 -16.45,12.61 -33.25,20.53 -4.55,2.34 -11.2,3.39 -19.83,3.39 v 12.72 h 198.21 v -12.72 h -10.26 c -10.74,0 -20.53,-2.45 -29.52,-7.47 -9.1,-5.01 -13.53,-12.59 -13.53,-22.63 0,-8.17 6.88,-22.98 20.88,-44.33 l 96.71,-149.45 90.89,142.92 c 13.65,21.46 20.53,37.33 20.53,47.82 0,6.42 -1.63,12.14 -5.02,17.16 -3.26,5.01 -8.05,8.86 -14.11,11.78 -6.19,2.8 -15.4,4.2 -27.77,4.2 v 12.72"
       style="fill:#000000;fill-opacity:1;fill-rule:evenodd;stroke:none"
       transform="matrix(0.13333333,0,0,-0.13333333,0,620)" />
    <path
       id="path31"
       d="m 4340.61,4372.45 c 0,-2.95 -0.7,-5.86 -2.06,-8.73 -1.37,-2.87 -3.29,-5.29 -5.75,-7.3 -2.7,-2.17 -5.85,-3.85 -9.45,-5.08 -3.6,-1.21 -7.95,-1.81 -13.02,-1.81 -5.44,0 -10.33,0.5 -14.68,1.52 -4.35,1 -8.76,2.51 -13.26,4.52 v 12.57 h 0.71 c 3.83,-3.19 8.22,-5.63 13.22,-7.36 5.01,-1.71 9.72,-2.58 14.11,-2.58 6.22,0 11.07,1.16 14.53,3.5 3.46,2.33 5.19,5.43 5.19,9.33 0,3.34 -0.81,5.81 -2.45,7.41 -1.65,1.59 -4.15,2.82 -7.49,3.7 -2.54,0.68 -5.27,1.23 -8.24,1.66 -2.95,0.45 -6.09,1.01 -9.41,1.68 -6.68,1.42 -11.65,3.84 -14.87,7.27 -3.24,3.45 -4.85,7.91 -4.85,13.42 0,6.32 2.66,11.51 8.02,15.54 5.33,4.04 12.11,6.06 20.34,6.06 5.29,0 10.16,-0.5 14.59,-1.52 4.43,-1 8.36,-2.27 11.77,-3.76 v -11.85 h -0.71 c -2.87,2.44 -6.65,4.44 -11.34,6.06 -4.67,1.6 -9.47,2.4 -14.37,2.4 -5.36,0 -9.69,-1.11 -12.94,-3.34 -3.28,-2.23 -4.9,-5.11 -4.9,-8.62 0,-3.15 0.81,-5.61 2.44,-7.41 1.61,-1.78 4.46,-3.17 8.56,-4.1 2.17,-0.49 5.24,-1.06 9.23,-1.74 3.99,-0.67 7.36,-1.36 10.15,-2.07 5.61,-1.49 9.83,-3.74 12.67,-6.75 2.84,-3 4.26,-7.2 4.26,-12.62"
       style="fill:#000000;fill-opacity:1;fill-rule:evenodd;stroke:none"
       transform="matrix(0.13333333,0,0,-0.13333333,0,620)" />
    <path
       id="path32"
       d="m 4424,4350.89 h -10.04 v 65.08 l -21,-44.28 h -5.99 l -20.84,44.28 v -65.08 h -9.39 v 75.52 h 13.7 l 20.13,-42.05 19.48,42.05 H 4424 v -75.52"
       style="fill:#000000;fill-opacity:1;fill-rule:evenodd;stroke:none"
       transform="matrix(0.13333333,0,0,-0.13333333,0,620)" />
  </g>
</svg>
