<?xml version="1.0" encoding="UTF-8" standalone="no"?>
<!-- Created with Inkscape (http://www.inkscape.org/) -->

<svg
   version="1.1"
   id="svg1"
   width="618.66669"
   height="620"
   viewBox="0 0 618.66669 620"
   sodipodi:docname="new_free_eulogo.svg"
   inkscape:version="1.4.2 (ebf0e940d0, 2025-05-08)"
   inkscape:export-filename="eulogo_bw_research.pdf"
   inkscape:export-xdpi="96"
   inkscape:export-ydpi="96"
   xmlns:inkscape="http://www.inkscape.org/namespaces/inkscape"
   xmlns:sodipodi="http://sodipodi.sourceforge.net/DTD/sodipodi-0.dtd"
   xmlns="http://www.w3.org/2000/svg"
   xmlns:svg="http://www.w3.org/2000/svg">
  <sodipodi:namedview
     id="namedview1"
     pagecolor="#ffffff"
     bordercolor="#000000"
     borderopacity="0.25"
     inkscape:showpageshadow="2"
     inkscape:pageopacity="0.0"
     inkscape:pagecheckerboard="0"
     inkscape:deskcolor="#d1d1d1"
     inkscape:zoom="1.2903226"
     inkscape:cx="270.8625"
     inkscape:cy="310"
     inkscape:window-width="1920"
     inkscape:window-height="1011"
     inkscape:window-x="0"
     inkscape:window-y="0"
     inkscape:window-maximized="1"
     inkscape:current-layer="g1"
     inkscape:export-bgcolor="#ffffffff">
    <inkscape:page
       x="0"
       y="0"
       inkscape:label="1"
       id="page1"
       width="618.66669"
       height="620"
       margin="0"
       bleed="0" />
  </sodipodi:namedview>
  <defs
     id="defs1">
    <rect
       x="95.324999"
       y="137.175"
       width="424.69999"
       height="51.924999"
       id="rect1" />
  </defs>
  <g
     id="g1"
     inkscape:groupmode="layer"
     inkscape:label="1">
    <path
       id="path1"
       d="M 16.125,4640.37 H 4636.6 V 19.9063 H 16.125 V 4640.37"
       style="fill:#ffffff;fill-opacity:1;fill-rule:evenodd;stroke:none"
       transform="matrix(0.13333333,0,0,-0.13333333,0,620)" />
    <path
       id="path2"
       d="m 14.530576,15.197009 589.606104,-1.45e-4 -7.1e-4,589.606056 -589.605966,2.2e-4 z"
       style="fill:none;stroke:#000000;stroke-width:5.2765;stroke-linecap:butt;stroke-linejoin:miter;stroke-miterlimit:2.6131;stroke-dasharray:none;stroke-opacity:1" />
    <path
       id="path3"
       d="M 5079.28,4312.04 C 6550.71,3702.55 7254.68,2007.67 6646.38,539.094 6038.07,-929.481 4341.83,-1630.16 2870.4,-1020.67 1398.97,-411.183 694.997,1283.69 1303.3,2752.27 1911.61,4220.85 3607.85,4921.52 5079.28,4312.04 Z"
       style="fill:none;stroke:#000000;stroke-width:51.8618;stroke-linecap:butt;stroke-linejoin:miter;stroke-miterlimit:2.6131;stroke-dasharray:none;stroke-opacity:1"
       transform="matrix(0.09418933,-0.0390904,-0.03901453,-0.09437253,0,620)" />
    <path
       id="path4"
       d="m 1929.81,1485.95 h 793.11 V 692.828 h -793.11 z"
       style="fill:none;stroke:#000000;stroke-width:39.685;stroke-linecap:butt;stroke-linejoin:miter;stroke-miterlimit:2.6131;stroke-dasharray:none;stroke-opacity:1"
       transform="matrix(0.13333333,0,0,-0.13333333,0,620)" />
    <path
       id="path5"
       d="m 2326.36,1654.23 c 311.1,0 564.84,-253.74 564.84,-564.84 0,-311.105 -253.74,-564.843 -564.84,-564.843 -311.1,0 -564.84,253.738 -564.84,564.843 0,311.1 253.74,564.84 564.84,564.84 z"
       style="fill:none;stroke:#000000;stroke-width:39.685;stroke-linecap:butt;stroke-linejoin:miter;stroke-miterlimit:2.6131;stroke-dasharray:none;stroke-opacity:1"
       transform="matrix(0.13333333,0,0,-0.13333333,0,620)" />
    <text
       xml:space="preserve"
       id="text1"
       style="text-align:start;writing-mode:lr-tb;direction:ltr;text-anchor:start;white-space:pre;shape-inside:url(#rect1);fill:#f9f9f9;-inkscape-font-specification:'TeX Gyre Termes, Normal';font-family:'TeX Gyre Termes';font-weight:normal;font-style:normal;font-stretch:normal;font-variant:normal;font-size:48px;font-variant-ligatures:normal;font-variant-caps:normal;font-variant-numeric:normal;font-variant-east-asian:normal"><tspan
         sodipodi:role="line"
         id="tspan1"
         style="-inkscape-font-specification:'TeX Gyre Termes, Normal';font-family:'TeX Gyre Termes';font-weight:normal;font-style:normal;font-stretch:normal;font-variant:normal;font-size:48px;font-variant-ligatures:normal;font-variant-caps:normal;font-variant-numeric:normal;font-variant-east-asian:normal">RESEARCH</tspan></text>
    <path
       style="font-size:69.3333px;line-height:0px;font-family:'TeX Gyre Termes';-inkscape-font-specification:'TeX Gyre Termes, Normal';letter-spacing:2px;fill:#1a1a1a"
       d="m 168.45079,181.325 v -1.31734 c -2.63467,-0.208 -4.02133,-0.90133 -6.032,-3.25866 l -14.28266,-17.54133 c 4.64534,-0.90133 6.72533,-1.73333 9.01333,-3.60533 2.21867,-1.80266 3.536,-4.71466 3.536,-7.97333 0,-2.98133 -0.90133,-5.54666 -2.704,-7.55733 -2.63466,-2.84266 -8.38933,-4.64533 -14.90666,-4.64533 h -19.13599 v 1.31734 c 5.2,0.55466 5.89333,1.31733 5.89333,6.23999 V 173.005 c 0,5.75466 -0.69333,6.58666 -5.89333,7.00266 v 1.31734 h 19.20533 v -1.31734 c -5.33867,-0.34666 -6.24,-1.248 -6.24,-6.23999 v -13.65866 l 3.88266,-0.13867 16.50133,21.35466 z m -15.32266,-33.83465 c 0,3.46666 -1.456,6.37866 -3.952,7.69599 -3.18933,1.80267 -5.61599,2.21867 -12.27199,2.35734 v -17.056 c 0,-1.94133 0.76267,-2.49599 3.536,-2.49599 8.66666,0 12.68799,2.98133 12.68799,9.49866 z m 59.26929,22.11732 h -1.94133 c -3.46666,7.488 -6.448,9.15199 -16.36266,9.15199 h -1.872 c -3.328,0 -6.10133,-0.27733 -6.72533,-0.76266 -0.416,-0.27733 -0.55466,-0.90133 -0.55466,-2.21867 v -17.12532 h 10.67732 c 5.68533,0 6.72533,0.90133 7.62667,6.656 h 1.59466 v -16.08533 h -1.59466 c -0.90134,5.68533 -2.01067,6.58666 -7.62667,6.58666 h -10.67732 v -15.39199 c 0,-1.94133 0.416,-2.35733 2.288,-2.35733 h 9.35999 c 7.83466,0 9.36,1.04 10.53866,7.28 h 1.73333 l -0.208,-9.91467 h -36.81598 v 1.31734 c 5.13067,0.416 6.032,1.31733 6.032,6.23999 v 30.78399 c 0,4.92266 -0.97067,5.89333 -6.032,6.23999 v 1.31734 h 37.43998 z m 37.01332,0.0693 c 0,-5.75466 -3.81333,-10.19199 -12.96533,-15.18399 -7.28,-3.952 -10.19199,-7.00266 -10.19199,-10.81599 0,-3.81334 2.91199,-6.37867 7.21066,-6.37867 3.12,0 6.032,1.31734 8.45866,3.81333 2.14933,2.21867 3.12,4.02134 4.22933,8.112 h 1.73333 l -1.52533,-14.76799 h -1.456 c -0.27733,1.52533 -1.04,2.35733 -2.21866,2.35733 -0.69334,0 -1.80267,-0.27733 -3.05067,-0.832 -2.56533,-0.97067 -5.06133,-1.52533 -7.48799,-1.52533 -2.704,0 -5.616,1.10933 -7.83467,2.912 -2.704,2.21866 -4.02133,5.19999 -4.02133,9.01332 0,5.47734 3.05067,9.36 10.816,13.45066 4.99199,2.704 8.59733,5.47734 10.33066,8.112 0.624,0.97067 0.97066,2.35733 0.97066,4.09067 0,4.57599 -3.46666,7.76532 -8.52799,7.76532 -6.24,0 -10.53866,-3.81333 -14.00533,-12.27199 h -1.59466 l 2.08,14.69866 h 1.52533 c 0.0693,-1.31733 0.90133,-2.288 1.94133,-2.288 0.76267,0 1.94133,0.27733 3.25867,0.76267 2.63466,1.04 5.40799,1.59466 8.18132,1.59466 8.04267,0 14.144,-5.47733 14.144,-12.61866 z m 47.89863,-0.0693 h -1.94133 c -3.46667,7.488 -6.448,9.15199 -16.36266,9.15199 h -1.872 c -3.328,0 -6.10133,-0.27733 -6.72533,-0.76266 -0.416,-0.27733 -0.55467,-0.90133 -0.55467,-2.21867 v -17.12532 h 10.67733 c 5.68533,0 6.72533,0.90133 7.62666,6.656 h 1.59467 v -16.08533 h -1.59467 c -0.90133,5.68533 -2.01066,6.58666 -7.62666,6.58666 h -10.67733 v -15.39199 c 0,-1.94133 0.416,-2.35733 2.288,-2.35733 h 9.36 c 7.83466,0 9.35999,1.04 10.53866,7.28 h 1.73333 l -0.208,-9.91467 h -36.81598 v 1.31734 c 5.13066,0.416 6.032,1.31733 6.032,6.23999 v 30.78399 c 0,4.92266 -0.97067,5.89333 -6.032,6.23999 v 1.31734 h 37.43998 z m 51.91998,11.71733 v -1.31734 c -3.12,-0.208 -3.81333,-0.90133 -6.23999,-6.03199 l -17.264,-39.38132 H 324.3387 L 309.91737,168.637 c -4.43733,10.12266 -5.26933,11.16266 -8.59733,11.37066 v 1.31734 h 13.728 v -1.31734 c -3.328,0 -4.71467,-0.90133 -4.71467,-2.84266 0,-0.832 0.208,-1.80267 0.55467,-2.704 l 3.18933,-8.112 h 18.16532 l 2.84267,6.656 c 0.832,1.94133 1.31733,3.67467 1.31733,4.71467 0,0.624 -0.416,1.38666 -0.97066,1.66399 -0.832,0.48534 -1.38667,0.624 -3.88267,0.624 v 1.31734 z m -17.95732,-17.81866 h -16.01599 l 7.97333,-19.06666 z m 66.7573,17.81866 v -1.31734 c -2.63467,-0.208 -4.02133,-0.90133 -6.032,-3.25866 l -14.28266,-17.54133 c 4.64533,-0.90133 6.72533,-1.73333 9.01333,-3.60533 2.21867,-1.80266 3.536,-4.71466 3.536,-7.97333 0,-2.98133 -0.90133,-5.54666 -2.704,-7.55733 -2.63467,-2.84266 -8.38933,-4.64533 -14.90666,-4.64533 h -19.13599 v 1.31734 c 5.2,0.55466 5.89333,1.31733 5.89333,6.23999 V 173.005 c 0,5.75466 -0.69333,6.58666 -5.89333,7.00266 v 1.31734 h 19.20532 v -1.31734 c -5.33866,-0.34666 -6.23999,-1.248 -6.23999,-6.23999 v -13.65866 l 3.88266,-0.13867 16.50133,21.35466 z m -15.32266,-33.83465 c 0,3.46666 -1.456,6.37866 -3.952,7.69599 -3.18933,1.80267 -5.616,2.21867 -12.27199,2.35734 v -17.056 c 0,-1.94133 0.76266,-2.49599 3.536,-2.49599 8.66666,0 12.68799,2.98133 12.68799,9.49866 z m 58.9919,25.99998 -1.248,-1.248 c -5.13066,4.92267 -9.70666,7.00267 -15.46132,7.00267 -4.16,0 -7.904,-1.248 -10.816,-3.67467 -4.09066,-3.39733 -6.37866,-9.63733 -6.37866,-17.67999 0,-12.54932 6.44799,-20.66132 16.50132,-20.66132 4.02133,0 7.55733,1.456 10.33066,4.22933 2.21867,2.21867 3.25867,4.16 4.576,8.66666 h 1.59467 l -0.624,-15.66932 h -1.456 c -0.416,1.456 -1.52533,2.288 -2.84267,2.288 -0.69333,0 -1.664,-0.208 -2.77333,-0.624 -3.39733,-1.10934 -6.79466,-1.664 -10.19199,-1.664 -5.33867,0 -10.816,2.01066 -15.04533,5.47733 -5.26933,4.368 -8.112,10.95466 -8.112,18.85866 0,14.07465 9.22133,23.50398 23.01866,23.50398 7.83466,0 14.69866,-3.18933 18.92799,-8.80533 z m 53.0293,7.83467 v -1.31734 c -5.2,-0.416 -6.10133,-1.31733 -6.10133,-6.23999 v -30.78399 c 0,-4.99199 0.76266,-5.75466 6.10133,-6.23999 v -1.31734 h -19.27466 v 1.31734 c 5.33867,0.48533 6.10133,1.248 6.10133,6.23999 v 13.45066 h -21.00799 v -13.45066 c 0,-4.99199 0.76267,-5.75466 6.10133,-6.23999 v -1.31734 h -19.27465 v 1.31734 c 5.33866,0.48533 6.10133,1.248 6.10133,6.23999 V 173.005 c 0,5.824 -0.69334,6.656 -6.10133,7.00266 v 1.31734 h 19.27465 v -1.31734 c -5.19999,-0.416 -6.10133,-1.31733 -6.10133,-6.23999 v -14.28266 h 21.00799 V 173.005 c 0,5.824 -0.69333,6.656 -6.10133,7.00266 v 1.31734 z"
       id="text2"
       aria-label="RESEARCH" />
    <path
       style="font-size:89.3333px;font-family:'TeX Gyre Termes';-inkscape-font-specification:'TeX Gyre Termes, Normal';fill:#1a1a1a"
       d="M 78.094092,324.47195 H 75.59276 c -4.466665,9.64799 -8.307997,11.79199 -21.082658,11.79199 h -2.411999 c -4.287999,0 -7.861331,-0.35733 -8.66533,-0.98266 -0.536,-0.35734 -0.714667,-1.16134 -0.714667,-2.85867 v -22.06532 h 13.757328 c 7.325331,0 8.66533,1.16133 9.826663,8.57599 h 2.054666 v -20.72532 h -2.054666 c -1.161333,7.32533 -2.590666,8.48666 -9.826663,8.48666 H 42.718106 v -19.83199 c 0,-2.50133 0.536,-3.03733 2.947999,-3.03733 H 57.7261 c 10.094663,0 12.059996,1.34 13.578662,9.37999 h 2.233332 l -0.268,-12.77466 H 25.834113 v 1.69733 c 6.610664,0.536 7.771997,1.69734 7.771997,8.04 v 39.66399 c 0,6.34266 -1.250666,7.59333 -7.771997,8.03999 v 1.69733 h 48.239981 z m 64.230648,-42.34399 v -1.69733 h -20.72533 v 1.69733 c 6.968,0.536 8.39733,2.50134 8.39733,11.43467 v 24.11999 c 0,6.07466 -0.62533,9.46933 -2.05466,12.14933 -2.412,4.28799 -8.12933,7.05733 -14.82933,7.05733 -6.34266,0 -10.72,-2.144 -13.131995,-6.34267 -1.608,-2.85866 -2.233333,-6.164 -2.233333,-11.79199 v -28.58666 c 0,-6.432 0.982666,-7.41466 8.129328,-8.04 v -1.69733 H 80.595429 v 1.69733 c 7.05733,0.536 8.039997,1.51867 8.039997,8.04 v 27.87199 c 0,15.45466 7.235997,22.77999 22.422654,22.77999 9.73733,0 16.43733,-3.12666 19.92133,-9.20133 2.144,-3.752 2.948,-7.86133 2.948,-14.73999 v -23.31599 c 0,-9.112 1.072,-10.54133 8.39733,-11.43467 z m 62.71198,27.60399 c 0,-8.03999 -2.68,-15.00799 -7.59333,-19.92132 -6.07466,-6.164 -15.81199,-9.38 -28.05065,-9.38 h -24.11999 v 1.69733 c 7.05733,0.62534 7.86133,1.42934 7.86133,8.04 v 39.66399 c 0,6.43199 -1.072,7.59333 -7.86133,8.03999 v 1.69733 h 25.37065 c 10.36266,0 19.74266,-2.94799 25.28132,-7.95066 5.80667,-5.27066 9.112,-13.22133 9.112,-21.88666 z m -9.73733,0.62534 c 0,10.54133 -3.66266,18.04532 -10.89866,22.24399 -4.556,2.59066 -9.73733,3.66266 -17.50933,3.66266 -3.57333,0 -4.64533,-0.804 -4.64533,-3.66266 v -45.38132 c 0,-2.76933 0.98267,-3.484 4.64533,-3.484 7.68267,0 13.48933,1.42934 17.77733,4.46667 6.968,4.824 10.63066,12.50666 10.63066,22.15466 z m 70.30527,29.21198 v -1.69733 c -4.02,-0.268 -4.91333,-1.16133 -8.04,-7.77199 l -22.24399,-50.74132 h -1.78666 l -18.58133,43.86265 c -5.71733,13.04266 -6.78933,14.38266 -11.07733,14.65066 v 1.69733 h 17.688 v -1.69733 c -4.288,0 -6.07467,-1.16133 -6.07467,-3.66266 0,-1.072 0.268,-2.32267 0.71467,-3.484 l 4.10933,-10.452 H 243.718 l 3.66267,8.576 c 1.072,2.50133 1.69733,4.73466 1.69733,6.07466 0,0.804 -0.536,1.78667 -1.25067,2.144 -1.07199,0.62534 -1.78666,0.804 -5.00266,0.804 v 1.69733 z m -23.13732,-22.95865 h -20.63599 l 10.27332,-24.56666 z m 77.89863,7.86133 h -2.50133 c -4.46666,9.64799 -8.308,11.79199 -21.08266,11.79199 h -2.412 c -4.28799,0 -7.86133,-0.35733 -8.66533,-0.98266 -0.536,-0.35734 -0.71466,-1.16134 -0.71466,-2.85867 v -22.06532 h 13.75733 c 7.32533,0 8.66533,1.16133 9.82666,8.57599 h 2.05466 v -20.72532 h -2.05466 c -1.16133,7.32533 -2.59067,8.48666 -9.82666,8.48666 h -13.75733 v -19.83199 c 0,-2.50133 0.536,-3.03733 2.948,-3.03733 h 12.05999 c 10.09466,0 12.06,1.34 13.57866,9.37999 h 2.23334 l -0.268,-12.77466 h -47.43599 v 1.69733 c 6.61067,0.536 7.772,1.69734 7.772,8.04 v 39.66399 c 0,6.34266 -1.25067,7.59333 -7.772,8.03999 v 1.69733 h 48.23999 z m 78.34533,15.09732 v -1.69733 c -6.52133,-0.44666 -7.77199,-1.69733 -7.77199,-8.03999 v -39.66399 c 0,-6.34266 1.16133,-7.504 7.77199,-8.04 v -1.69733 h -17.77732 l -19.74266,45.11332 -20.63599,-45.11332 h -17.688 v 1.69733 c 7.32533,0.44667 8.48667,1.51867 8.48667,8.04 v 36.26932 c 0,9.20133 -1.25067,10.89866 -8.66533,11.43466 v 1.69733 h 20.99332 v -1.69733 c -6.87866,-0.35733 -8.39733,-2.412 -8.39733,-11.43466 v -36.00132 l 22.42266,49.13331 h 1.25067 l 22.86932,-51.18797 v 40.46798 c 0,7.41466 -1.072,8.576 -8.12933,9.02266 v 1.69733 z m 63.78397,-29.21198 c 0,-8.844 -2.59066,-16.43733 -7.50399,-21.79733 -5.628,-6.164 -13.132,-9.37999 -21.708,-9.37999 -17.06266,0 -29.21198,12.86399 -29.21198,30.81998 0,8.39733 2.85866,16.52666 7.68266,21.70799 5.18133,5.628 13.13199,9.112 20.99332,9.112 17.59866,0 29.74799,-12.50666 29.74799,-30.46265 z m -10.18399,-0.0893 c 0,5.27067 -1.16134,11.43467 -2.948,16.08 -0.804,2.23333 -2.32267,4.46666 -4.37733,6.52133 -3.12667,3.12666 -7.14667,4.73466 -11.88133,4.73466 -4.10933,0 -8.12933,-1.608 -11.256,-4.37733 -4.64533,-4.10933 -7.59333,-13.13199 -7.59333,-23.04799 0,-9.112 2.50133,-17.77733 6.25333,-21.97599 3.484,-3.84133 7.86133,-5.80667 12.77466,-5.80667 4.10934,0 8.21867,1.608 11.43467,4.46667 4.82399,4.37733 7.59333,12.77466 7.59333,23.40532 z m 76.37995,-28.13999 v -1.69733 h -20.99332 v 1.69733 c 3.39466,0.268 4.64533,0.62534 5.98533,1.42934 1.78666,1.25066 2.59066,4.46666 2.59066,10.00533 v 30.10532 l -34.39332,-43.23732 h -15.27599 v 1.69733 c 3.84133,0 5.092,0.71467 8.66533,4.91334 v 39.39598 c 0,9.20133 -1.25067,10.89866 -8.66533,11.43466 v 1.69733 h 20.99333 v -1.69733 c -6.87867,-0.35733 -8.39733,-2.412 -8.39733,-11.43466 v -35.01865 l 39.48531,49.13331 h 1.51867 v -46.98931 c 0,-5.36 0.89333,-8.66533 2.59066,-9.82667 1.25067,-0.89333 2.50134,-1.25066 5.896,-1.608 z m 64.14133,0 v -1.69733 h -19.564 v 1.69733 c 4.64534,0.0893 6.164,0.804 6.164,2.948 0,0.89334 -0.44666,1.96534 -1.25066,3.30534 l -12.77467,20.18932 -13.22132,-19.83199 c -0.98267,-1.42933 -1.51867,-2.948 -1.51867,-3.93067 0,-1.608 1.25067,-2.412 4.10933,-2.59066 0.35733,0 1.25067,0 2.23333,-0.0893 v -1.69733 h -25.01332 v 1.69733 c 4.288,0.17867 5.53867,1.42934 14.47199,14.02533 l 11.70267,17.152 v 15.54399 c 0,7.772 -0.89334,8.66533 -9.02267,9.02266 v 1.69733 h 27.33599 v -1.69733 c -7.95066,-0.17866 -9.20133,-1.25066 -9.20133,-8.03999 v -17.33066 l 13.22133,-20.18933 c 5.44933,-7.86133 7.772,-9.82666 12.328,-10.184 z"
       id="text2-4"
       aria-label="EUDAEMONY" />
    <path
       style="font-size:64px;font-family:'TeX Gyre Termes';-inkscape-font-specification:'TeX Gyre Termes, Normal';text-align:center;text-anchor:middle;fill:#1a1a1a"
       d="m 225.94128,88.365217 v -1.152 h -16.32 v 1.152 c 2.752,0.192 3.52,0.384 4.288,0.896 0.96,0.576 1.344,2.048 1.344,4.8 v 10.368003 c 0,2.048 -3.904,3.776 -8.512,3.776 -10.432,0 -16.832,-7.296 -16.832,-19.200003 0,-6.016 1.792,-11.84 4.608,-14.976 2.816,-3.136 6.784,-4.864 11.136,-4.864 3.584,0 6.72,1.216 9.216,3.52 1.92,1.792 2.944,3.52 4.544,7.424 h 1.472 l -0.512,-13.504 h -1.408 c -0.384,1.216 -1.536,2.112 -2.88,2.112 -0.64,0 -1.664,-0.192 -2.816,-0.64 -2.88,-0.96 -5.824,-1.472 -8.704,-1.472 -12.8,0 -21.952,9.408 -21.952,22.464 0,6.272 1.728,11.072003 5.312,14.848003 4.288,4.416 10.432,6.848 17.472,6.848 5.504,0 13.504,-2.24 16.064,-4.48 V 93.293217 c 0,-3.776 0.768,-4.608 4.48,-4.928 z m 39.104,10.368 h -1.6 c -1.024,2.240003 -1.856,3.712003 -2.752,4.736003 -2.24,2.688 -5.76,3.904 -11.264,3.904 h -4.288 c -4.672,0 -5.504,-0.384 -5.504,-2.624 V 74.477217 c 0,-4.544 0.896,-5.44 5.952,-5.76 v -1.216 h -18.048 v 1.216 c 4.736,0.384 5.568,1.216 5.568,5.76 v 28.416003 c 0,4.544 -0.896,5.44 -5.568,5.76 v 1.216 h 34.432 z m 44.86401,-9.792 c 0,-6.336 -1.856,-11.776 -5.376,-15.616 -4.032,-4.416 -9.408,-6.72 -15.552,-6.72 -12.224,0 -20.928,9.216 -20.928,22.08 0,6.016 2.048,11.840003 5.504,15.552003 3.712,4.032 9.408,6.528 15.04,6.528 12.608,0 21.312,-8.96 21.312,-21.824003 z m -7.296,-0.064 c 0,3.776 -0.832,8.192 -2.112,11.520003 -0.576,1.6 -1.664,3.2 -3.136,4.672 -2.24,2.24 -5.12,3.392 -8.512,3.392 -2.944,0 -5.824,-1.152 -8.064,-3.136 -3.328,-2.944 -5.44,-9.408003 -5.44,-16.512003 0,-6.528 1.792,-12.736 4.48,-15.744 2.496,-2.752 5.632,-4.16 9.152,-4.16 2.944,0 5.888,1.152 8.192,3.2 3.456,3.136 5.44,9.152 5.44,16.768 z m 47.42401,9.472 c 0,-2.816 -1.152,-5.376 -3.136,-7.232 -1.92,-1.728 -3.648,-2.496 -7.808,-3.52 3.328,-0.832 4.672,-1.472 6.208,-2.816 1.6,-1.408 2.56,-3.776 2.56,-6.4 0,-7.168 -5.696,-10.88 -16.768,-10.88 h -17.92 v 1.216 c 5.376,0.32 6.144,1.024 6.144,5.76 v 28.416003 c 0,4.736 -0.832,5.568 -6.144,5.76 v 1.216 h 21.376 c 4.992,0 9.536,-1.344 11.904,-3.52 2.304,-2.048 3.584,-4.928 3.584,-8.000003 z m -7.36,0.064 c 0,3.456003 -1.344,5.952003 -3.904,7.424003 -2.048,1.152 -4.672,1.664 -8.896,1.664 -3.136,0 -4.032,-0.576 -4.032,-2.624 V 89.005217 c 6.208,0 9.152,0.32 11.456,1.28 3.648,1.536 5.376,4.096 5.376,8.128 z m -1.344,-19.776 c 0,4.992 -3.392,7.808 -9.408,7.808 h -6.08 v -14.656 c 0,-1.344 0.448,-1.92 1.408,-1.92 h 2.816 c 7.36,0 11.264,3.072 11.264,8.768 z m 55.42403,31.232003 v -1.216 c -2.88,-0.192 -3.52,-0.832 -5.76,-5.568 l -15.936,-36.352003 h -1.28 l -13.312,31.424 c -4.096,9.344003 -4.864,10.304003 -7.936,10.496003 v 1.216 h 12.672 v -1.216 c -3.072,0 -4.352,-0.832 -4.352,-2.624 0,-0.768 0.192,-1.664 0.512,-2.496 l 2.944,-7.488003 h 16.768 l 2.624,6.144003 c 0.768,1.792 1.216,3.392 1.216,4.352 0,0.576 -0.384,1.28 -0.896,1.536 -0.768,0.448 -1.28,0.576 -3.584,0.576 v 1.216 z m -16.576,-16.448003 h -14.784 l 7.36,-17.6 z m 55.87201,5.312 h -1.6 c -1.024,2.240003 -1.856,3.712003 -2.752,4.736003 -2.24,2.688 -5.76,3.904 -11.264,3.904 h -4.288 c -4.672,0 -5.504,-0.384 -5.504,-2.624 V 74.477217 c 0,-4.544 0.896,-5.44 5.952,-5.76 v -1.216 h -18.048 v 1.216 c 4.736,0.384 5.568,1.216 5.568,5.76 v 28.416003 c 0,4.544 -0.896,5.44 -5.568,5.76 v 1.216 h 34.432 z"
       id="text2-7"
       aria-label="GLOBAL" />
    <path
       style="font-size:14px;font-family:'Liberation Sans';-inkscape-font-specification:'Liberation Sans, Normal';text-align:center;text-anchor:middle;fill:#1a1a1a"
       d="m 579.03339,36.878746 q 0,1.333008 -1.0459,2.064453 -1.03906,0.731445 -2.93262,0.731445 -3.52051,0 -4.08105,-2.447265 l 1.26464,-0.25293 q 0.21875,0.868164 0.92969,1.27832 0.71094,0.403321 1.93457,0.403321 1.26465,0 1.94824,-0.430664 0.69043,-0.4375 0.69043,-1.278321 0,-0.471679 -0.21875,-0.765625 -0.21191,-0.293945 -0.60156,-0.485351 -0.38965,-0.191406 -0.92969,-0.321289 -0.54004,-0.129883 -1.19629,-0.280274 -1.1416,-0.252929 -1.73632,-0.505859 -0.58789,-0.25293 -0.92969,-0.560547 -0.3418,-0.314453 -0.52637,-0.731445 -0.17773,-0.416992 -0.17773,-0.957031 0,-1.237305 0.94336,-1.907227 0.95019,-0.669922 2.71386,-0.669922 1.64063,0 2.50879,0.505859 0.86817,0.499024 1.2168,1.708985 l -1.28516,0.225586 q -0.21191,-0.765625 -0.80664,-1.107422 -0.59472,-0.348633 -1.64746,-0.348633 -1.15527,0 -1.76367,0.382813 -0.6084,0.382812 -0.6084,1.141601 0,0.444336 0.23242,0.738281 0.23926,0.28711 0.6836,0.492188 0.44433,0.198242 1.77051,0.492187 0.44433,0.102539 0.88183,0.211914 0.44434,0.10254 0.84766,0.25293 0.40332,0.143555 0.75195,0.341797 0.35547,0.198242 0.61524,0.485352 0.25976,0.287109 0.40332,0.676757 0.15039,0.389649 0.15039,0.916016 z m 9.98046,2.65918 v -6.425782 q 0,-1.066406 0.0615,-2.050781 -0.33496,1.223633 -0.60156,1.914063 l -2.48829,6.5625 h -0.91601 l -2.52246,-6.5625 -0.38281,-1.16211 -0.22559,-0.751953 0.0205,0.758789 0.0273,1.291992 v 6.425782 H 580.8244 V 29.90609 h 1.71582 l 2.56348,6.678711 q 0.13672,0.40332 0.25976,0.868164 0.12989,0.458008 0.1709,0.663086 0.0547,-0.273438 0.22559,-0.827149 0.17773,-0.560547 0.23926,-0.704101 l 2.51562,-6.678711 h 1.67481 v 9.631836 z"
       id="text2-7-0"
       aria-label="SM" />
  </g>
</svg>
